<svg height="32" baseProfile="tiny" id="Layer_1" overflow="scroll" version="1.1" viewBox="0 0 24 24" xml:space="preserve" xmlns="http://www.w3.org/2000/svg"><path d="M18.32.719A.75.75 0 0 0 17.791.5H2.524a.75.75 0 0 0-.75.75v21.5c0 .414.336.75.75.75h18.952a.75.75 0 0 0 .75-.75V4.92c0-.198-.08-.39-.221-.53L18.32.719zm2.393 4.5h-2.698V2.532l2.698 2.689zM3.274 22V2h13.24v3.97c0 .414.337.75.75.75h3.462V22H3.274z" fill="#1D1D1D"/><path d="M11.5 11.25h-2a.75.75 0 0 0 0 1.5h1.25v5.772h-2.5V17a.75.75 0 0 0-1.5 0v2c0 .048.019.09.028.136-.01.046-.028.088-.028.136 0 .415.336.75.75.75h4a.75.75 0 0 0 .75-.75V12a.75.75 0 0 0-.75-.75zM18.5 12.75a.75.75 0 0 0 0-1.5h-3.637a.75.75 0 0 0-.75.75v3.637c0 .414.336.75.75.75h2.887v2.135h-2.887a.75.75 0 0 0 0 1.5H18.5a.75.75 0 0 0 .75-.75v-3.635a.75.75 0 0 0-.75-.75h-2.887V12.75H18.5z" fill="#1D1D1D"/></svg>