<svg height="32" id="round_x5F_trip" version="1.1" viewBox="0 0 512 512" width="32" xml:space="preserve" xmlns="http://www.w3.org/2000/svg"><path d="M223.744 248.013c1.652 2.445 5.039 2.83 6.678.759l8.531-10.777c2.059-2.602 2.518-6.237 1.215-9.642l-27.782-72.879 25.019-21.072c11.927-9.183 16.612-18.01 17.809-25.458 2.548-15.863-10.851-29.26-26.706-26.666-7.43 1.216-16.236 5.913-25.405 17.821l-21.071 25.019-72.878-27.781c-3.406-1.302-7.041-.844-9.642 1.216l-10.777 8.531c-2.071 1.639-1.686 5.024.759 6.678l64.319 44.864-28.199 33.481-23.855-6.187a8.433 8.433 0 0 0-7.197 1.431l-5.677 4.281c-1.627 1.227-1.532 3.7.184 4.799l21.734 13.92a15.625 15.625 0 0 0-.911 2.012c-1.219 3.39-1.73 8.4 2.505 12.687l.058.059c4.287 4.235 9.297 3.724 12.688 2.505.695-.25 1.361-.567 2.012-.911l13.92 21.734c1.099 1.716 3.572 1.811 4.799.184l4.281-5.677a8.43 8.43 0 0 0 1.43-7.196l-6.187-23.855 33.481-28.199 44.865 64.319zm-3.598-148.267 1.479-1.48c4.773-4.772 12.513-4.772 17.286 0 4.773 4.774 4.773 12.513 0 17.286l-1.479 1.48a2.29 2.29 0 0 1-3.238 0l-14.048-14.049a2.289 2.289 0 0 1 0-3.237zM259.837 453.447c7.431-1.215 16.237-5.912 25.406-17.82l21.071-25.02 72.879 27.782c3.405 1.302 7.041.844 9.642-1.216l10.776-8.531c2.071-1.639 1.687-5.025-.758-6.678l-64.319-44.863 28.199-33.482 23.854 6.188a8.435 8.435 0 0 0 7.197-1.431l5.677-4.282c1.627-1.227 1.532-3.699-.184-4.799l-21.735-13.92c.346-.65.662-1.316.912-2.012 1.219-3.391 1.73-8.4-2.506-12.688l-.059-.059c-4.287-4.235-9.297-3.725-12.688-2.506-.695.25-1.36.567-2.012.912l-13.92-21.734c-1.099-1.717-3.572-1.811-4.799-.184l-4.281 5.676a8.433 8.433 0 0 0-1.431 7.197l6.187 23.855-33.481 28.199-44.864-64.319c-1.652-2.444-5.039-2.829-6.678-.759l-8.531 10.776c-2.06 2.602-2.518 6.237-1.215 9.643l27.782 72.878-25.019 21.072c-11.927 9.183-16.612 18.01-17.809 25.458-2.546 15.865 10.852 29.261 26.707 26.667zm-10.403-33.273 1.479-1.479a2.288 2.288 0 0 1 3.238 0l14.048 14.048a2.287 2.287 0 0 1 0 3.237l-1.479 1.479c-4.773 4.774-12.513 4.774-17.286 0-4.774-4.771-4.774-12.512 0-17.285zM184.667 463.951c6.415 0 12.886-.446 19.371-1.352l-3.729-26.731c-34.516 4.811-68.408-6.532-93.008-31.134-38.365-38.366-42.851-100.015-10.434-143.402l-21.621-16.155c-19.51 26.11-29.031 58.485-26.813 91.16a136.81 136.81 0 0 0 39.784 87.483c26.015 26.016 60.372 40.131 96.45 40.131zM423.848 281.805c53.38-53.38 53.38-140.235 0-193.616-41.51-41.512-104.752-51.962-157.367-26.016l11.938 24.208c42.242-20.834 93.015-12.435 126.343 20.893 42.856 42.857 42.856 112.589 0 155.447l-9.332 9.331 19.088 19.085 9.33-9.332z"/></svg>